<svg xmlns="http://www.w3.org/2000/svg" xmlns:xlink="http://www.w3.org/1999/xlink" width="36.532" height="36.528" viewBox="0 0 36.532 36.528">
  <defs>
    <linearGradient id="linear-gradient" x1="0.067" y1="0.053" x2="0.917" y2="0.939" gradientUnits="objectBoundingBox">
      <stop offset="0" stop-color="#fff" stop-opacity="0.4"/>
      <stop offset="1" stop-color="#fff" stop-opacity="0.051"/>
    </linearGradient>
    <filter id="facebook-rect" x="0" y="0" width="36.532" height="36.528" filterUnits="userSpaceOnUse">
      <feOffset input="SourceAlpha"/>
      <feGaussianBlur stdDeviation="1" result="blur"/>
      <feFlood flood-color="#e8e0e0" result="color"/>
      <feComposite operator="out" in="SourceGraphic" in2="blur"/>
      <feComposite operator="in" in="color"/>
      <feComposite operator="in" in2="SourceGraphic"/>
    </filter>
  </defs>
  <g data-type="innerShadowGroup">
    <path id="facebook-rect-2" data-name="facebook-rect" d="M6.573,0C2.5-.245-.141,2.65,0,6.573V29.426A5.958,5.958,0,0,0,6.573,36H18.959V21.926H15.238V16.859h3.721V12.53c0-3.4,2.2-6.524,7.264-6.524a30.691,30.691,0,0,1,3.567.2l-.119,4.732s-1.547-.015-3.234-.015c-1.827,0-2.119.842-2.119,2.239v3.7h5.5l-.24,5.067H24.318V36h5.109c4.248.089,6.832-2.8,6.573-6.573V6.573C36.193,2.9,33.741-.122,29.427,0Z" transform="translate(0.262 0.266)" fill="url(#linear-gradient)"/>
    <g transform="matrix(1, 0, 0, 1, 0, 0)" filter="url(#facebook-rect)">
      <path id="facebook-rect-3" data-name="facebook-rect" d="M6.573,0C2.5-.245-.141,2.65,0,6.573V29.426A5.958,5.958,0,0,0,6.573,36H18.959V21.926H15.238V16.859h3.721V12.53c0-3.4,2.2-6.524,7.264-6.524a30.691,30.691,0,0,1,3.567.2l-.119,4.732s-1.547-.015-3.234-.015c-1.827,0-2.119.842-2.119,2.239v3.7h5.5l-.24,5.067H24.318V36h5.109c4.248.089,6.832-2.8,6.573-6.573V6.573C36.193,2.9,33.741-.122,29.427,0Z" transform="translate(0.26 0.27)" fill="#fff"/>
    </g>
    <path id="facebook-rect-4" data-name="facebook-rect" d="M6.573,0C2.5-.245-.141,2.65,0,6.573V29.426A5.958,5.958,0,0,0,6.573,36H18.959V21.926H15.238V16.859h3.721V12.53c0-3.4,2.2-6.524,7.264-6.524a30.691,30.691,0,0,1,3.567.2l-.119,4.732s-1.547-.015-3.234-.015c-1.827,0-2.119.842-2.119,2.239v3.7h5.5l-.24,5.067H24.318V36h5.109c4.248.089,6.832-2.8,6.573-6.573V6.573C36.193,2.9,33.741-.122,29.427,0Z" transform="translate(0.262 0.266)" fill="none" stroke="#fff" stroke-width="0.5"/>
  </g>
</svg>
